# xmcd
#
# Track frame offsets: 
#        150
#        19773
#        54371
#        77907
#        111015
#        163547
#        192370
#        241671
#        274600
#
# Disc length: 4464 seconds
#
# Revision: 0
# Processed by: cddbd v1.5.2PL0 Copyright (c) Steve Scherf et al.
# Submitted via: ExactAudioCopy v1.0b3
#
DISCID=68116e09
DTITLE=The Stormbirds - Live im Klanghaus Klein Jasedow
DYEAR=2010
DGENRE=Blues
TTITLE0=Send You Something
TTITLE1=Motor Running Hot
TTITLE2=Dream Train
TTITLE3=Jonathan Monk
TTITLE4=Train Jam
TTITLE5=Sad Eyes
TTITLE6=Deep Jam
TTITLE7=5 Little Mer Maids
TTITLE8=Walk On The Wild Bird
EXTD=
EXTT0=
EXTT1=
EXTT2=
EXTT3=
EXTT4=
EXTT5=
EXTT6=
EXTT7=
EXTT8=
PLAYORDER=
